<svg width="14" height="14" viewBox="0 0 14 14" fill="none" xmlns="http://www.w3.org/2000/svg">
<g id="ion:bed-outline" clip-path="url(#clip0_570_174)">
<path id="Vector" d="M2.125 10.6644V7.826C2.12627 7.39622 2.29756 6.98441 2.60146 6.68051C2.90536 6.37662 3.31717 6.20533 3.74694 6.20406H11.0457C11.4755 6.20533 11.8873 6.37662 12.1912 6.68051C12.4951 6.98441 12.6663 7.39622 12.6676 7.826V10.6644M10.6402 6.20406H3.34146V3.5684C3.34226 3.29979 3.44932 3.04242 3.63925 2.85248C3.82919 2.66255 4.08656 2.55549 4.35517 2.55469H10.4374C10.7061 2.55549 10.9634 2.66255 11.1534 2.85248C11.3433 3.04242 11.4504 3.29979 11.4512 3.5684V6.20406H10.6402Z" stroke="black" stroke-width="0.843409" stroke-linecap="round" stroke-linejoin="round"/>
<path id="Vector_2" d="M2.125 10.6643V10.4616C2.12547 10.3004 2.1897 10.146 2.30366 10.032C2.41763 9.91807 2.57206 9.85384 2.73323 9.85337H12.0594C12.2206 9.85384 12.375 9.91807 12.489 10.032C12.6029 10.146 12.6672 10.3004 12.6676 10.4616V10.6643M3.74694 6.204V5.79852C3.74754 5.58362 3.83318 5.3777 3.98513 5.22574C4.13709 5.07379 4.34301 4.98815 4.55791 4.98755H6.58534C6.80024 4.98815 7.00616 5.07379 7.15812 5.22574C7.31007 5.3777 7.39571 5.58362 7.39631 5.79852M7.39631 5.79852V6.204M7.39631 5.79852C7.39691 5.58362 7.48255 5.3777 7.6345 5.22574C7.78646 5.07379 7.99238 4.98815 8.20728 4.98755H10.2347C10.4496 4.98815 10.6555 5.07379 10.8075 5.22574C10.9594 5.3777 11.0451 5.58362 11.0457 5.79852V6.204" stroke="black" stroke-width="0.843409" stroke-linecap="round" stroke-linejoin="round"/>
</g>
<defs>
<clipPath id="clip0_570_174">
<rect width="12.9755" height="12.9755" fill="white" transform="translate(0.908691 0.121826)"/>
</clipPath>
</defs>
</svg>
