<svg width="13" height="13" viewBox="0 0 13 13" fill="none" xmlns="http://www.w3.org/2000/svg">
<g id="moneyicon">
<g id="Group 1323">
<circle id="Ellipse 3" cx="6.67053" cy="6.32751" r="5.70923" stroke="black" stroke-width="0.99291"/>
<path id="Vector" d="M6.61356 9.84149C6.49048 9.84149 6.38738 9.80554 6.30427 9.73364C6.22116 9.66174 6.17945 9.57287 6.17916 9.46701V9.03636C5.85336 8.97395 5.56739 8.86472 5.32123 8.70869C5.07507 8.55265 4.87597 8.33421 4.72393 8.05335C4.67325 7.96597 4.67151 7.87397 4.71872 7.77735C4.76592 7.68074 4.85092 7.61046 4.97371 7.56652C5.07507 7.52907 5.18005 7.53069 5.28865 7.57139C5.39725 7.61208 5.48051 7.67911 5.53843 7.77248C5.66151 7.95973 5.81717 8.10178 6.0054 8.19864C6.19364 8.29551 6.42532 8.34382 6.70044 8.34357C6.99728 8.34357 7.2488 8.2859 7.45499 8.17056C7.66119 8.05522 7.76443 7.87572 7.76472 7.63205C7.76472 7.41361 7.68508 7.24047 7.5258 7.11265C7.36652 6.98483 6.99728 6.83965 6.41808 6.67713C5.79544 6.50861 5.36829 6.30739 5.13661 6.07346C4.90493 5.83954 4.78909 5.55393 4.78909 5.21665C4.78909 4.81096 4.94113 4.49577 5.24521 4.27109C5.54929 4.0464 5.8606 3.91845 6.17916 3.88724V3.47531C6.17916 3.36921 6.22087 3.28021 6.30427 3.20831C6.38767 3.13641 6.49077 3.10058 6.61356 3.10083C6.73664 3.10083 6.83988 3.13678 6.92329 3.20868C7.00669 3.28058 7.04825 3.36946 7.04796 3.47531V3.88724C7.32308 3.92469 7.562 4.00121 7.76472 4.1168C7.96744 4.23239 8.13396 4.37432 8.26427 4.54258C8.32943 4.62372 8.34218 4.71422 8.3025 4.81408C8.26283 4.91394 8.18131 4.98572 8.05794 5.02941C7.95658 5.06686 7.8516 5.06848 7.743 5.03428C7.6344 5.00008 7.53304 4.93916 7.43892 4.85153C7.3448 4.76415 7.23432 4.69712 7.10747 4.65043C6.98063 4.60375 6.82323 4.58028 6.63528 4.58003C6.31672 4.58003 6.07418 4.64095 5.90766 4.76278C5.74115 4.88461 5.65789 5.0359 5.65789 5.21665C5.65789 5.42261 5.76649 5.58489 5.98368 5.70348C6.20088 5.82206 6.57736 5.94689 7.11312 6.07796C7.61268 6.20278 7.99104 6.40101 8.2482 6.67263C8.50537 6.94426 8.6338 7.25782 8.63351 7.61333C8.63351 8.05647 8.48147 8.3935 8.1774 8.62443C7.87332 8.85536 7.49684 8.99891 7.04796 9.05508V9.46701C7.04796 9.57311 7.00626 9.66212 6.92285 9.73402C6.83945 9.80592 6.73635 9.84174 6.61356 9.84149Z" fill="black"/>
</g>
</g>
</svg>
