<svg width="38" height="41" viewBox="0 0 38 41" fill="none" xmlns="http://www.w3.org/2000/svg">
<g id="chatbubble-ellipses-outline">
<path id="Vector" d="M6.46555 30.211C6.55423 29.8741 6.35987 29.4056 6.17438 29.068C6.11688 28.9671 6.05422 28.8696 5.98667 28.7757C4.39577 26.2645 3.54783 23.3227 3.54793 20.3148C3.52132 11.6807 10.4001 4.67432 18.9061 4.67432C26.3243 4.67432 32.5172 10.0232 33.9635 17.1234C34.1805 18.1761 34.2903 19.2497 34.2909 20.3263C34.2909 28.9726 27.6774 36.089 19.1714 36.089C17.8183 36.089 15.9936 35.7352 14.9982 35.4452C14.0027 35.1552 13.0088 34.7707 12.7523 34.6676C12.4898 34.5626 12.211 34.5087 11.9298 34.5084C11.6232 34.5072 11.3195 34.5708 11.0371 34.6953L6.02362 36.5782C5.91407 36.6275 5.79794 36.6591 5.67924 36.6721C5.58535 36.6718 5.49245 36.6521 5.40591 36.6142C5.31937 36.5763 5.24091 36.5209 5.17507 36.4512C5.10923 36.3815 5.05732 36.299 5.02234 36.2083C4.98735 36.1176 4.97 36.0206 4.97127 35.9229C4.97743 35.8371 4.9923 35.7523 5.01561 35.6698L6.46555 30.211Z" stroke="#B94630" stroke-width="2.35226" stroke-miterlimit="10" stroke-linecap="round"/>
<path id="Vector_2" d="M11.8248 23.1351C13.1309 23.1351 14.1896 22.0331 14.1896 20.6738C14.1896 19.3144 13.1309 18.2124 11.8248 18.2124C10.5187 18.2124 9.45996 19.3144 9.45996 20.6738C9.45996 22.0331 10.5187 23.1351 11.8248 23.1351Z" fill="#B94630"/>
<path id="Vector_3" d="M18.9186 23.1351C20.2246 23.1351 21.2834 22.0331 21.2834 20.6738C21.2834 19.3144 20.2246 18.2124 18.9186 18.2124C17.6125 18.2124 16.5537 19.3144 16.5537 20.6738C16.5537 22.0331 17.6125 23.1351 18.9186 23.1351Z" fill="#B94630"/>
<path id="Vector_4" d="M26.0133 23.1351C27.3193 23.1351 28.3781 22.0331 28.3781 20.6738C28.3781 19.3144 27.3193 18.2124 26.0133 18.2124C24.7072 18.2124 23.6484 19.3144 23.6484 20.6738C23.6484 22.0331 24.7072 23.1351 26.0133 23.1351Z" fill="#B94630"/>
</g>
</svg>
