<svg width="270" height="423" viewBox="0 0 270 423" fill="none" xmlns="http://www.w3.org/2000/svg">
<path d="M187.732 239.155L126.272 210.538L64.8124 239.155L126.272 267.763L187.732 239.155Z" fill="#F47D7D"/>
<path d="M126.335 347.168L187.484 318.951V239.467L126.335 267.684V347.168Z" fill="#E51313"/>
<path d="M126.317 347.168L65.1678 318.951V239.467L126.317 267.684V347.168Z" fill="#EB5757"/>
<path d="M213.135 157.859L151.675 129.251L90.2244 157.859L151.675 186.475L213.135 157.859Z" fill="#F47D7D"/>
<path d="M151.745 265.868L212.894 237.651V158.167L151.745 186.384V265.868Z" fill="#E51313"/>
<path d="M151.727 265.868L90.5782 237.651V158.167L151.727 186.384V265.868Z" fill="#EB5757"/>
<path d="M129.272 235.999C139.328 233.066 144.296 219.775 140.369 206.311C136.442 192.847 125.107 184.311 115.052 187.243C104.997 190.176 100.029 203.468 103.955 216.932C107.882 230.395 119.217 238.932 129.272 235.999Z" fill="white"/>
<path d="M102.263 217.09C106.125 230.577 117.428 239.163 127.497 236.268C129.763 235.614 131.837 234.423 133.544 232.796C123.919 234.386 113.602 226.013 109.952 213.263C106.96 202.848 109.269 192.557 115.12 187.088C114.569 187.186 114.019 187.31 113.486 187.461C103.417 190.338 98.392 203.612 102.263 217.09Z" fill="#FFBBBB"/>
<path d="M175.043 82.8031L113.583 54.1953L52.1237 82.8031L113.583 111.42L175.043 82.8031Z" fill="#F47D7D"/>
<path d="M113.648 190.812L174.797 162.595V83.1113L113.648 111.328V190.812Z" fill="#E51313"/>
<path d="M113.639 190.812L52.4807 162.595V83.1113L113.639 111.328V190.812Z" fill="#EB5757"/>
<path d="M146.241 111.022V0L216.509 78.6049L146.241 111.022Z" fill="#CC1111"/>
<path d="M146.24 111.022V0L75.9816 78.6049L146.24 111.022Z" fill="#E54545"/>
<path d="M134.956 128.946V162.073L122.17 167.968V134.61C122.176 133.381 122.392 132.162 122.809 131.006C124.363 126.566 128.296 123.982 131.582 125.146C132.365 125.449 133.069 125.927 133.641 126.542C134.213 127.157 134.638 127.894 134.885 128.697L134.956 128.946Z" fill="white"/>
<path d="M151.692 121.863V154.99L138.916 160.894V127.527C138.926 126.316 139.142 125.115 139.555 123.976C141.109 119.536 145.033 116.944 148.327 118.107C149.109 118.411 149.812 118.888 150.383 119.504C150.954 120.119 151.377 120.856 151.621 121.658C151.649 121.725 151.672 121.793 151.692 121.863Z" fill="white"/>
<path d="M168.439 114.705V147.833L155.653 153.728V120.37C155.659 119.141 155.875 117.922 156.292 116.765C157.855 112.326 161.779 109.742 165.065 110.905C165.854 111.212 166.562 111.696 167.134 112.319C167.707 112.943 168.129 113.689 168.368 114.501C168.395 114.568 168.419 114.636 168.439 114.705V114.705Z" fill="white"/>
<path d="M168.439 114.696V147.823H168.376L155.653 153.701V148.471L162.667 145.23V112.13C162.667 112.059 162.667 111.988 162.596 111.917C162.457 111.528 162.287 111.152 162.09 110.789C163.07 110.531 164.105 110.568 165.065 110.896C165.854 111.202 166.562 111.686 167.134 112.309C167.707 112.933 168.129 113.679 168.368 114.492C168.395 114.558 168.419 114.626 168.439 114.696V114.696Z" fill="#FFBBBB"/>
<path d="M151.692 121.859V154.986H151.63L138.916 160.864V155.626L145.921 152.394V119.293C145.901 119.221 145.878 119.15 145.85 119.08C145.717 118.689 145.548 118.311 145.344 117.952C146.323 117.687 147.359 117.721 148.318 118.05C149.102 118.352 149.807 118.829 150.38 119.445C150.952 120.06 151.377 120.798 151.621 121.602C151.651 121.686 151.674 121.772 151.692 121.859V121.859Z" fill="#FFBBBB"/>
<path d="M134.956 128.938V162.065H134.893L122.17 167.943V162.705L129.175 159.473V126.372C129.156 126.3 129.132 126.229 129.104 126.159C128.972 125.77 128.805 125.392 128.607 125.032C129.587 124.769 130.623 124.806 131.582 125.138C132.365 125.441 133.07 125.918 133.642 126.533C134.215 127.149 134.639 127.886 134.885 128.69C134.914 128.771 134.937 128.854 134.956 128.938V128.938Z" fill="#FFBBBB"/>
</svg>
