<svg width="25" height="25" viewBox="0 0 25 25" fill="none" xmlns="http://www.w3.org/2000/svg">
<g id="moneyicon">
<g id="Group 1323">
<circle id="Ellipse 3" cx="12.5" cy="12.5" r="11.5" stroke="black" stroke-width="2"/>
<path id="Vector" d="M12.3855 19.5776C12.1376 19.5776 11.9299 19.5052 11.7625 19.3603C11.5951 19.2155 11.5111 19.0365 11.5105 18.8233V17.9558C10.8543 17.8301 10.2782 17.6101 9.78241 17.2958C9.28657 16.9815 8.88553 16.5415 8.57928 15.9758C8.4772 15.7998 8.4737 15.6144 8.56878 15.4198C8.66386 15.2252 8.83507 15.0837 9.08241 14.9952C9.28657 14.9197 9.49803 14.923 9.71678 15.005C9.93553 15.0869 10.1032 15.222 10.2199 15.41C10.4678 15.7872 10.7814 16.0733 11.1605 16.2684C11.5397 16.4635 12.0064 16.5609 12.5605 16.5603C13.1584 16.5603 13.6651 16.4442 14.0804 16.2119C14.4957 15.9795 14.7037 15.618 14.7043 15.1272C14.7043 14.6871 14.5439 14.3384 14.223 14.0809C13.9022 13.8235 13.1584 13.531 11.9918 13.2037C10.7376 12.8642 9.8772 12.4589 9.41053 11.9877C8.94386 11.5165 8.71053 10.9412 8.71053 10.2619C8.71053 9.44469 9.01678 8.80981 9.62928 8.35722C10.2418 7.90464 10.8689 7.64691 11.5105 7.58405V6.75431C11.5105 6.54059 11.5945 6.36132 11.7625 6.21649C11.9305 6.07166 12.1382 5.9995 12.3855 6C12.6334 6 12.8414 6.07242 13.0094 6.21724C13.1774 6.36207 13.2611 6.54109 13.2605 6.75431V7.58405C13.8147 7.65949 14.2959 7.81362 14.7043 8.04645C15.1126 8.27928 15.448 8.56516 15.7105 8.9041C15.8418 9.06753 15.8674 9.24982 15.7875 9.45097C15.7076 9.65212 15.5434 9.7967 15.2949 9.8847C15.0907 9.96013 14.8793 9.9634 14.6605 9.89451C14.4418 9.82561 14.2376 9.70291 14.048 9.5264C13.8584 9.3504 13.6359 9.21538 13.3804 9.12134C13.1249 9.0273 12.8079 8.98003 12.4293 8.97953C11.7876 8.97953 11.2991 9.10223 10.9637 9.34763C10.6282 9.59303 10.4605 9.89778 10.4605 10.2619C10.4605 10.6767 10.6793 11.0036 11.1168 11.2425C11.5543 11.4813 12.3126 11.7328 13.3918 11.9968C14.398 12.2482 15.1602 12.6475 15.6782 13.1946C16.1962 13.7417 16.4549 14.3734 16.4543 15.0894C16.4543 15.982 16.148 16.6609 15.5355 17.1261C14.923 17.5912 14.1647 17.8804 13.2605 17.9935V18.8233C13.2605 19.037 13.1765 19.2163 13.0085 19.3611C12.8405 19.5059 12.6329 19.5781 12.3855 19.5776Z" fill="black"/>
</g>
</g>
</svg>
