<svg width="31" height="30" viewBox="0 0 31 30" fill="none" xmlns="http://www.w3.org/2000/svg">
<path d="M13.2505 5L10.7505 7.5" stroke="black" stroke-width="1.92" stroke-linecap="round" stroke-linejoin="round"/>
<path d="M22.0002 23.75V26.25" stroke="black" stroke-width="1.92" stroke-linecap="round" stroke-linejoin="round"/>
<path d="M3.25024 15H28.2502" stroke="black" stroke-width="1.92" stroke-linecap="round" stroke-linejoin="round"/>
<path d="M9.50024 23.75V26.25" stroke="black" stroke-width="1.92" stroke-linecap="round" stroke-linejoin="round"/>
<path d="M12.0005 6.24975L10.2767 4.526C9.91525 4.16284 9.45628 3.91221 8.95534 3.80443C8.4544 3.69665 7.93296 3.73635 7.4541 3.91871C6.97525 4.10107 6.5595 4.41829 6.25716 4.83199C5.95481 5.24569 5.77882 5.73813 5.75049 6.24975V21.2498C5.75049 21.9128 6.01388 22.5487 6.48272 23.0175C6.95156 23.4864 7.58745 23.7498 8.25049 23.7498H23.2505C23.9135 23.7498 24.5494 23.4864 25.0183 23.0175C25.4871 22.5487 25.7505 21.9128 25.7505 21.2498V14.9998" stroke="black" stroke-width="1.92" stroke-linecap="round" stroke-linejoin="round"/>
</svg>
