<svg width="31" height="30" viewBox="0 0 31 30" fill="none" xmlns="http://www.w3.org/2000/svg">
<path d="M3.0625 24.375V17.8125C3.06544 16.8188 3.46147 15.8667 4.16409 15.1641C4.86672 14.4615 5.81884 14.0654 6.8125 14.0625H23.6875C24.6812 14.0654 25.6333 14.4615 26.3359 15.1641C27.0385 15.8667 27.4346 16.8188 27.4375 17.8125V24.375M22.75 14.0625H5.875V7.96875C5.87685 7.34772 6.12438 6.75265 6.56352 6.31352C7.00265 5.87438 7.59772 5.62685 8.21875 5.625H22.2812C22.9023 5.62685 23.4973 5.87438 23.9365 6.31352C24.3756 6.75265 24.6231 7.34772 24.625 7.96875V14.0625H22.75Z" stroke="black" stroke-width="1.625" stroke-linecap="round" stroke-linejoin="round"/>
<path d="M3.0625 24.375V23.9062C3.06358 23.5336 3.21209 23.1766 3.47558 22.9131C3.73907 22.6496 4.09612 22.5011 4.46875 22.5H26.0312C26.4039 22.5011 26.7609 22.6496 27.0244 22.9131C27.2879 23.1766 27.4364 23.5336 27.4375 23.9062V24.375M6.8125 14.0625V13.125C6.81389 12.6281 7.01188 12.152 7.36321 11.8007C7.71454 11.4494 8.19065 11.2514 8.6875 11.25H13.375C13.8719 11.2514 14.348 11.4494 14.6993 11.8007C15.0506 12.152 15.2486 12.6281 15.25 13.125M15.25 13.125V14.0625M15.25 13.125C15.2514 12.6281 15.4494 12.152 15.8007 11.8007C16.152 11.4494 16.6281 11.2514 17.125 11.25H21.8125C22.3094 11.2514 22.7855 11.4494 23.1368 11.8007C23.4881 12.152 23.6861 12.6281 23.6875 13.125V14.0625" stroke="black" stroke-width="1.625" stroke-linecap="round" stroke-linejoin="round"/>
</svg>
