<svg width="28" height="28" viewBox="0 0 28 28" fill="none" xmlns="http://www.w3.org/2000/svg">
<g id="ph:x-bold">
<path id="Vector" d="M22.1245 20.9931C22.362 21.2306 22.4954 21.5527 22.4954 21.8886C22.4954 22.2244 22.362 22.5466 22.1245 22.7841C21.887 23.0216 21.5649 23.155 21.229 23.155C20.8931 23.155 20.571 23.0216 20.3335 22.7841L13.6445 16.093L6.95346 22.782C6.71596 23.0195 6.39383 23.1529 6.05795 23.1529C5.72207 23.1529 5.39994 23.0195 5.16244 22.782C4.92493 22.5445 4.7915 22.2223 4.7915 21.8865C4.7915 21.5506 4.92493 21.2284 5.16244 20.9909L11.8535 14.302L5.16454 7.61095C4.92704 7.37344 4.79361 7.05132 4.79361 6.71544C4.79361 6.37955 4.92704 6.05743 5.16454 5.81992C5.40205 5.58242 5.72417 5.44899 6.06006 5.44899C6.39594 5.44899 6.71806 5.58242 6.95557 5.81992L13.6445 12.511L20.3356 5.81887C20.5731 5.58137 20.8952 5.44794 21.2311 5.44794C21.567 5.44794 21.8891 5.58137 22.1266 5.81887C22.3641 6.05637 22.4975 6.3785 22.4975 6.71438C22.4975 7.05026 22.3641 7.37239 22.1266 7.60989L15.4355 14.302L22.1245 20.9931Z" fill="black"/>
</g>
</svg>
