<svg width="1740" height="70" viewBox="0 0 1440 352" fill="none" xmlns="http://www.w3.org/2000/svg">
<rect width="1740" height="70" fill="url(#paint0_linear_3281_22729)"/>
<path fill-rule="evenodd" clip-rule="evenodd" d="M534.118 305.754L526.92 309.135V351.447C517.964 328.3 513 303.166 513 276.858C513 162.613 605.613 70 719.858 70C834.096 70 926.702 162.613 926.702 276.858C926.702 303.292 921.69 328.541 912.652 351.78V291.015H900.472V272.858H893.887V291.015H889.001V263.321L863.376 237.537L837.751 263.321V291.015H832.581V273.59H825.996V291.015H814.1V298.492H811.587V272.289H815.23L814.417 270.429C809.046 258.16 796.934 250.23 783.559 250.23C774.337 250.23 765.717 254.001 759.491 260.363V242.936H753.418V229.035H746.833V242.936H743.608V224.316H689.029V242.936H679.058V225.142H660.726V155.378C660.726 155.055 660.672 154.748 660.574 154.47L662.576 154.456C663.421 154.451 663.94 153.529 663.507 152.804L646.63 124.503C646.216 123.809 645.218 123.788 644.776 124.464L626.115 153.013C625.637 153.743 626.165 154.71 627.037 154.704L629.21 154.689C629.154 154.906 629.124 155.138 629.124 155.378V225.142H612.983V246.894H605.569V288.419H602.269V285.946H591.507V275.564L569.264 253.182L547.02 275.564V285.946H534.118V305.754Z" fill="white" fill-opacity="0.2"/>
<path d="M644.5 196C647.538 196 650 193.538 650 190.5C650 187.462 647.538 185 644.5 185C641.462 185 639 187.462 639 190.5C639 193.538 641.462 196 644.5 196Z" fill="white" fill-opacity="0.2"/>
<path fill-rule="evenodd" clip-rule="evenodd" d="M639.213 161.584C639.213 161.584 639.213 161.583 639.213 161.583C639.213 159.604 637.375 158 635.107 158C632.839 158 631 159.604 631 161.583C631 161.583 631 161.584 631 161.584H631V178.407H639.219V161.584H639.213Z" fill="white" fill-opacity="0.2"/>
<path fill-rule="evenodd" clip-rule="evenodd" d="M649.003 161.584C649.003 161.584 649.003 161.583 649.003 161.583C649.003 159.604 647.165 158 644.897 158C642.629 158 640.79 159.604 640.79 161.583C640.79 161.612 640.79 161.642 640.791 161.671V178.407H649.01V161.584H649.003Z" fill="white" fill-opacity="0.2"/>
<path fill-rule="evenodd" clip-rule="evenodd" d="M658.795 161.584C658.795 161.584 658.795 161.583 658.795 161.583C658.795 159.604 656.957 158 654.689 158C652.421 158 650.582 159.604 650.582 161.583C650.582 161.583 650.582 161.584 650.582 161.584H650.581V178.407H658.8V161.584H658.795Z" fill="white" fill-opacity="0.2"/>
<defs>
<linearGradient id="paint0_linear_3281_22729" x1="720" y1="0" x2="720" y2="352" gradientUnits="userSpaceOnUse">
<stop stop-color="#FF8888"/>
<stop offset="1" stop-color="#FFAC92"/>
</linearGradient>
</defs>
</svg>
