<svg width="24" height="24" viewBox="0 0 24 24" fill="none" xmlns="http://www.w3.org/2000/svg">
<g id="drive-icon">
<path id="Vector" d="M3 10.4886L4.85143 6.16879C5.15282 5.46555 5.92074 5 6.77883 5H16.4712C17.3293 5 18.0972 5.46555 18.3986 6.16879L20.25 10.4886M3 10.4886H20.25M3 10.4886V17.5455M20.25 10.4886V17.5455M20.25 17.5455H3M20.25 17.5455V19.1136H18.6818V17.5455M3 17.5455V19.1136H4.56818V17.5455" stroke="black" stroke-width="1.7642" stroke-linecap="round" stroke-linejoin="round"/>
<path id="Vector_2" d="M6.13614 14.4091C6.56918 14.4091 6.92023 14.058 6.92023 13.625C6.92023 13.192 6.56918 12.8409 6.13614 12.8409C5.7031 12.8409 5.35205 13.192 5.35205 13.625C5.35205 14.058 5.7031 14.4091 6.13614 14.4091Z" stroke="black" stroke-width="1.7642" stroke-linecap="round" stroke-linejoin="round"/>
<path id="Vector_3" d="M17.1137 14.4091C17.5467 14.4091 17.8978 14.058 17.8978 13.625C17.8978 13.192 17.5467 12.8409 17.1137 12.8409C16.6806 12.8409 16.3296 13.192 16.3296 13.625C16.3296 14.058 16.6806 14.4091 17.1137 14.4091Z" stroke="black" stroke-width="1.7642" stroke-linecap="round" stroke-linejoin="round"/>
</g>
</svg>
