<svg width="22" height="22" viewBox="0 0 22 22" fill="none" xmlns="http://www.w3.org/2000/svg">
<path id="Vector" fill-rule="evenodd" clip-rule="evenodd" d="M13.4517 1.25C13.4517 1.94 14.0117 2.5 14.7017 2.5H18.8567V6.655C18.8567 6.98652 18.9884 7.30446 19.2228 7.53888C19.4572 7.7733 19.7751 7.905 20.1067 7.905C20.4382 7.905 20.7561 7.7733 20.9905 7.53888C21.225 7.30446 21.3567 6.98652 21.3567 6.655V1.25C21.3567 0.918479 21.225 0.600537 20.9905 0.366116C20.7561 0.131696 20.4382 0 20.1067 0H14.7017C14.3701 0 14.0522 0.131696 13.8178 0.366116C13.5834 0.600537 13.4517 0.918479 13.4517 1.25ZM20.1067 13.4517C19.7751 13.4517 19.4572 13.5834 19.2228 13.8178C18.9884 14.0522 18.8567 14.3701 18.8567 14.7017V18.8567H14.7017C14.3701 18.8567 14.0522 18.9884 13.8178 19.2228C13.5834 19.4572 13.4517 19.7751 13.4517 20.1067C13.4517 20.4382 13.5834 20.7561 13.8178 20.9905C14.0522 21.225 14.3701 21.3567 14.7017 21.3567H20.1067C20.4382 21.3567 20.7561 21.225 20.9905 20.9905C21.225 20.7561 21.3567 20.4382 21.3567 20.1067V14.7017C21.3567 14.3701 21.225 14.0522 20.9905 13.8178C20.7561 13.5834 20.4382 13.4517 20.1067 13.4517ZM1.25 13.4517C1.58152 13.4517 1.89946 13.5834 2.13388 13.8178C2.3683 14.0522 2.5 14.3701 2.5 14.7017V18.8567H6.655C6.98652 18.8567 7.30446 18.9884 7.53888 19.2228C7.7733 19.4572 7.905 19.7751 7.905 20.1067C7.905 20.4382 7.7733 20.7561 7.53888 20.9905C7.30446 21.225 6.98652 21.3567 6.655 21.3567H1.25C0.918479 21.3567 0.600537 21.225 0.366116 20.9905C0.131696 20.7561 0 20.4382 0 20.1067V14.7017C0 14.3701 0.131696 14.0522 0.366116 13.8178C0.600537 13.5834 0.918479 13.4517 1.25 13.4517ZM7.905 1.25C7.905 1.58152 7.7733 1.89946 7.53888 2.13388C7.30446 2.3683 6.98652 2.5 6.655 2.5H2.5V6.655C2.5 6.98652 2.3683 7.30446 2.13388 7.53888C1.89946 7.7733 1.58152 7.905 1.25 7.905C0.918479 7.905 0.600537 7.7733 0.366116 7.53888C0.131696 7.30446 0 6.98652 0 6.655V1.25C0 0.918479 0.131696 0.600537 0.366116 0.366116C0.600537 0.131696 0.918479 0 1.25 0H6.655C6.98652 0 7.30446 0.131696 7.53888 0.366116C7.7733 0.600537 7.905 0.918479 7.905 1.25Z" fill="black"/>
</svg>
