<svg width="32" height="32" viewBox="0 0 32 32" fill="none" xmlns="http://www.w3.org/2000/svg">
<path d="M28.3332 16.0002H11.8598M6.04517 16.0002H3.6665M6.04517 16.0002C6.04517 15.2293 6.35141 14.49 6.89651 13.9449C7.44162 13.3998 8.18094 13.0935 8.95184 13.0935C9.72273 13.0935 10.4621 13.3998 11.0072 13.9449C11.5523 14.49 11.8585 15.2293 11.8585 16.0002C11.8585 16.7711 11.5523 17.5104 11.0072 18.0555C10.4621 18.6006 9.72273 18.9068 8.95184 18.9068C8.18094 18.9068 7.44162 18.6006 6.89651 18.0555C6.35141 17.5104 6.04517 16.7711 6.04517 16.0002ZM28.3332 24.8095H20.6692M20.6692 24.8095C20.6692 25.5806 20.3622 26.3207 19.817 26.866C19.2717 27.4112 18.5322 27.7175 17.7612 27.7175C16.9903 27.7175 16.251 27.4099 15.7058 26.8648C15.1607 26.3197 14.8545 25.5804 14.8545 24.8095M20.6692 24.8095C20.6692 24.0384 20.3622 23.2996 19.817 22.7544C19.2717 22.2092 18.5322 21.9028 17.7612 21.9028C16.9903 21.9028 16.251 22.2091 15.7058 22.7542C15.1607 23.2993 14.8545 24.0386 14.8545 24.8095M14.8545 24.8095H3.6665M28.3332 7.19085H24.1932M18.3785 7.19085H3.6665M18.3785 7.19085C18.3785 6.41995 18.6847 5.68063 19.2298 5.13552C19.775 4.59042 20.5143 4.28418 21.2852 4.28418C21.6669 4.28418 22.0449 4.35936 22.3975 4.50544C22.7502 4.65151 23.0706 4.86561 23.3405 5.13552C23.6104 5.40543 23.8245 5.72586 23.9706 6.07851C24.1167 6.43117 24.1918 6.80914 24.1918 7.19085C24.1918 7.57256 24.1167 7.95053 23.9706 8.30318C23.8245 8.65583 23.6104 8.97626 23.3405 9.24617C23.0706 9.51608 22.7502 9.73018 22.3975 9.87626C22.0449 10.0223 21.6669 10.0975 21.2852 10.0975C20.5143 10.0975 19.775 9.79128 19.2298 9.24617C18.6847 8.70106 18.3785 7.96174 18.3785 7.19085Z" stroke="#B94630" stroke-width="2.025" stroke-miterlimit="10" stroke-linecap="round"/>
</svg>
