<svg width="54" height="54" viewBox="0 0 54 54" fill="none" xmlns="http://www.w3.org/2000/svg">
<g id="fluent:location-12-filled">
<path id="Vector" d="M26.7889 2.2324C32.1175 2.2324 37.2279 4.34919 40.9958 8.1171C44.7637 11.885 46.8805 16.9954 46.8805 22.324C46.8805 30.6419 40.5405 39.3572 28.1283 48.6664C27.7419 48.9562 27.2719 49.1128 26.7889 49.1128C26.3059 49.1128 25.8359 48.9562 25.4494 48.6664C13.0373 39.3572 6.69727 30.6419 6.69727 22.324C6.69727 16.9954 8.81405 11.885 12.582 8.1171C16.3499 4.34919 21.4603 2.2324 26.7889 2.2324ZM26.7889 15.6268C25.0127 15.6268 23.3092 16.3324 22.0532 17.5884C20.7973 18.8443 20.0917 20.5478 20.0917 22.324C20.0917 24.1002 20.7973 25.8037 22.0532 27.0597C23.3092 28.3156 25.0127 29.0212 26.7889 29.0212C28.5651 29.0212 30.2686 28.3156 31.5245 27.0597C32.7805 25.8037 33.4861 24.1002 33.4861 22.324C33.4861 20.5478 32.7805 18.8443 31.5245 17.5884C30.2686 16.3324 28.5651 15.6268 26.7889 15.6268Z" fill="#EB5757"/>
<g id="Group 975">
<path id="Union" fill-rule="evenodd" clip-rule="evenodd" d="M16.808 18.3532L26.6936 10.2053L36.2442 18.3532H36.4611V33.1674H16.5836V18.5382H16.5835L16.5836 18.5381V18.3532H16.808Z" fill="white"/>
<g id="Group 974">
<rect id="Rectangle 353" x="21.2612" y="20.1444" width="3.93125" height="3.93125" fill="#EB5757"/>
<rect id="Rectangle 354" x="27.5312" y="20.1444" width="3.93125" height="3.93125" fill="#EB5757"/>
<rect id="Rectangle 355" x="21.2607" y="26.4144" width="3.93125" height="3.93125" fill="#EB5757"/>
<rect id="Rectangle 356" x="27.5308" y="26.4144" width="3.93125" height="3.93125" fill="#EB5757"/>
</g>
</g>
</g>
</svg>
