<svg width="17" height="17" viewBox="0 0 17 17" fill="#B94630" xmlns="http://www.w3.org/2000/svg">
<path d="M1.04325 2.47528C0.897636 2.37977 0.863131 2.19279 0.966161 2.05773C1.06919 1.92267 1.27068 1.89062 1.41634 1.98623L2.22293 2.51558C2.36855 2.61109 2.40305 2.79807 2.30002 2.93313C2.23709 3.01562 2.13734 3.0597 2.03614 3.0597C1.97166 3.0597 1.90652 3.04183 1.84984 3.00458L1.04325 2.47528Z" fill="#B94630"/>
<path d="M3.18108 2.3022C3.14368 2.31528 3.10525 2.32147 3.06751 2.32147C2.93683 2.32147 2.81384 2.24737 2.76519 2.12719L2.41748 1.26931C2.35472 1.11448 2.43917 0.94173 2.60614 0.883513C2.77304 0.825246 2.95933 0.903685 3.02209 1.05851L3.36979 1.91639C3.43249 2.07122 3.34804 2.24398 3.18108 2.3022Z" fill="#B94630"/>
<path d="M0.641945 3.61279C0.644152 3.61279 0.646359 3.61279 0.64862 3.61279L1.63646 3.62048C1.81479 3.62383 1.95642 3.75055 1.95281 3.91597C1.94926 4.07929 1.80537 4.21196 1.62999 4.21196C1.62779 4.21196 1.62558 4.21196 1.62332 4.21196L0.635486 4.19633C0.457147 4.19293 0.315519 4.05992 0.319126 3.8945C0.322678 3.73118 0.466567 3.61279 0.641945 3.61279Z" fill="#B94630"/>
<path d="M3.11025 9.3441C3.27567 9.22262 3.47151 9.13994 3.67854 9.10109C3.66486 9.07812 3.65211 9.05476 3.64005 9.03104L3.51042 8.91081C3.01121 8.44771 2.95878 7.7188 3.38855 7.21516C3.59144 6.97744 3.87308 6.81947 4.18588 6.7605C4.16354 6.72236 4.14373 6.68336 4.12575 6.64377C3.78576 6.18696 3.79131 5.57303 4.16785 5.13176C4.37079 4.89389 4.65253 4.73542 4.9655 4.67655C4.70712 4.23587 4.74011 3.68665 5.08527 3.28227C5.34624 2.97645 5.7371 2.801 6.15772 2.801C6.49454 2.801 6.81229 2.91264 7.06163 3.11706C7.09937 2.91839 7.18883 2.72651 7.33143 2.55939C7.59245 2.25358 7.98331 2.07817 8.40393 2.07812C8.76944 2.07812 9.11255 2.20969 9.37002 2.4485L12.645 5.4862L12.6575 5.08078C12.6633 4.39025 13.2707 3.8301 14.0166 3.8301C14.7489 3.8301 15.3477 4.37008 15.3746 5.04328L16.0284 9.45234L16.5658 10.0317C16.8879 10.3791 16.8663 10.9045 16.5166 11.2281L15.7179 11.9677C15.9641 12.3112 15.921 12.7798 15.5992 13.0776L11.849 16.5506C11.6698 16.7164 11.4319 16.8076 11.179 16.8076C10.9714 16.8076 10.7663 16.7429 10.6015 16.6256L9.81858 16.068C9.06545 15.903 8.23512 15.5281 7.34919 14.9531C6.5756 14.4509 5.73634 13.7817 4.85488 12.9641L2.9907 11.235C2.71579 10.98 2.57109 10.6264 2.5937 10.265C2.61631 9.90415 2.80455 9.56853 3.11025 9.3441ZM6.66711 3.59498C6.527 3.46506 6.34241 3.4001 6.15778 3.4001C5.94703 3.4001 5.73623 3.48474 5.59176 3.65405C5.36266 3.92252 5.40281 4.31211 5.66383 4.55417L5.99634 4.86254C6.04759 4.89424 6.09749 4.92814 6.14421 4.96654C6.18195 4.76782 6.27146 4.57594 6.41406 4.40888C6.58938 4.20347 6.82338 4.05723 7.08559 3.98313L6.66711 3.59498ZM8.91327 2.87215C8.77321 2.74224 8.58857 2.67728 8.40393 2.67728C8.19314 2.67733 7.98239 2.76196 7.83791 2.93127C7.60881 3.19974 7.64897 3.58929 7.90999 3.83134L11.7275 7.33569L11.7401 6.93031C11.7434 6.53961 11.9393 6.19076 12.2437 5.96143L8.91327 2.87215ZM16.0604 10.8039C16.1725 10.7001 16.1793 10.5338 16.0761 10.4224L15.415 9.70958C15.4147 9.70923 15.4144 9.70873 15.4144 9.70828L14.7296 5.09066C14.7296 4.72688 14.4088 4.42925 14.0166 4.42925C13.6243 4.42925 13.3034 4.72688 13.3034 5.09066L13.2848 5.69156C13.9302 5.77375 14.4326 6.27738 14.4573 6.89271L15.111 11.3018L15.3012 11.5069L16.0604 10.8039ZM3.4475 10.8113L5.31163 12.5404C6.90375 14.0171 8.56801 15.2025 10.03 15.498C10.0744 15.5071 10.1162 15.5244 10.1522 15.5501L10.9949 16.1504C11.0495 16.1893 11.1144 16.2084 11.179 16.2084C11.2566 16.2084 11.334 16.1807 11.3926 16.1265L15.1429 12.6534C15.2551 12.5497 15.2619 12.3833 15.1586 12.2719L14.4976 11.5591C14.4972 11.5587 14.497 11.5583 14.4969 11.5578L13.8122 6.9402C13.8122 6.57641 13.4913 6.27873 13.0991 6.27873C12.7069 6.27873 12.386 6.57641 12.386 6.9402L12.3523 8.02986C12.3467 8.2109 12.1861 8.32878 12.019 8.32878C11.9375 8.32878 11.8544 8.30067 11.7871 8.23826L7.9958 4.72169C7.85568 4.59172 7.67115 4.52681 7.48646 4.52681C7.27571 4.52681 7.06492 4.61144 6.92044 4.78075C6.69134 5.04922 6.73155 5.43882 6.99257 5.68088L9.60428 8.10335C9.73988 8.22917 9.73988 8.43304 9.60428 8.55876C9.53565 8.62242 9.4457 8.65427 9.35575 8.65427C9.2658 8.65427 9.1758 8.62242 9.10722 8.55876L5.74964 5.44451C5.60957 5.31455 5.42499 5.24964 5.2403 5.24964C5.02956 5.24969 4.81876 5.33432 4.67428 5.50363C4.44518 5.77205 4.48539 6.16165 4.74641 6.40371L8.08822 9.50337C8.22565 9.63089 8.22565 9.8375 8.08822 9.96502C8.0205 10.0278 7.93179 10.0592 7.84297 10.0592C7.75426 10.0592 7.66549 10.0278 7.59778 9.96502L4.97029 7.52797C4.83017 7.398 4.64559 7.33309 4.46095 7.33309C4.25021 7.33309 4.03941 7.41772 3.89493 7.58708C3.66583 7.8555 3.70604 8.2451 3.96706 8.48716L6.56968 10.9012C6.71029 11.0316 6.71029 11.2431 6.56968 11.3735L6.56548 11.3774C6.50051 11.4377 6.41535 11.4678 6.33025 11.4678C6.24509 11.4678 6.15993 11.4377 6.09501 11.3774L4.48151 9.88084C4.33612 9.74598 4.14147 9.67468 3.94747 9.67468C3.79314 9.67468 3.63924 9.71981 3.51107 9.81393C3.16871 10.0653 3.1475 10.5331 3.4475 10.8113Z" fill="#B94630"/>
</svg>
