<svg width="42" height="44" viewBox="0 0 42 44" fill="none" xmlns="http://www.w3.org/2000/svg">
<ellipse cx="20.5" cy="38.5" rx="13.5" ry="5.5" fill="#E17F7F" fill-opacity="0.5"/>
<path d="M21 1.75C25.1772 1.75 29.1832 3.40937 32.1369 6.36307C35.0906 9.31677 36.75 13.3228 36.75 17.5C36.75 24.0205 31.78 30.8525 22.05 38.15C21.7471 38.3772 21.3786 38.5 21 38.5C20.6214 38.5 20.2529 38.3772 19.95 38.15C10.22 30.8525 5.25 24.0205 5.25 17.5C5.25 13.3228 6.90937 9.31677 9.86307 6.36307C12.8168 3.40937 16.8228 1.75 21 1.75ZM21 12.25C19.6076 12.25 18.2723 12.8031 17.2877 13.7877C16.3031 14.7723 15.75 16.1076 15.75 17.5C15.75 18.8924 16.3031 20.2277 17.2877 21.2123C18.2723 22.1969 19.6076 22.75 21 22.75C22.3924 22.75 23.7277 22.1969 24.7123 21.2123C25.6969 20.2277 26.25 18.8924 26.25 17.5C26.25 16.1076 25.6969 14.7723 24.7123 13.7877C23.7277 12.8031 22.3924 12.25 21 12.25Z" fill="#EB5757"/>
<path fill-rule="evenodd" clip-rule="evenodd" d="M13.176 14.3873L20.9254 8L28.4122 14.3873H28.5822V14.5323V26.0002H13V14.5323V14.3873H13.176Z" fill="white"/>
<rect x="16.667" y="15.7914" width="3.08174" height="3.08174" fill="#EB5757"/>
<rect x="21.582" y="15.7914" width="3.08174" height="3.08174" fill="#EB5757"/>
<rect x="16.6665" y="20.7065" width="3.08174" height="3.08174" fill="#EB5757"/>
<rect x="21.5815" y="20.7065" width="3.08174" height="3.08174" fill="#EB5757"/>
</svg>
