<svg width="25" height="33" viewBox="0 0 25 33" fill="none" xmlns="http://www.w3.org/2000/svg">
<g id="Group 1223">
<ellipse id="Ellipse 5" cx="12.2126" cy="28.2286" rx="10.2307" ry="4.16807" fill="#F0BFBF"/>
<path id="Vector" d="M12.1582 0C15.3408 0 18.393 1.26428 20.6435 3.51472C22.8939 5.76516 24.1582 8.8174 24.1582 12C24.1582 16.968 20.3715 22.1733 12.9582 27.7333C12.7274 27.9064 12.4467 28 12.1582 28C11.8697 28 11.589 27.9064 11.3582 27.7333C3.94487 22.1733 0.158203 16.968 0.158203 12C0.158203 8.8174 1.42249 5.76516 3.67292 3.51472C5.92336 1.26428 8.97561 0 12.1582 0ZM12.1582 8C11.0973 8 10.0799 8.42143 9.32978 9.17157C8.57963 9.92172 8.1582 10.9391 8.1582 12C8.1582 13.0609 8.57963 14.0783 9.32978 14.8284C10.0799 15.5786 11.0973 16 12.1582 16C13.2191 16 14.2365 15.5786 14.9866 14.8284C15.7368 14.0783 16.1582 13.0609 16.1582 12C16.1582 10.9391 15.7368 9.92172 14.9866 9.17157C14.2365 8.42143 13.2191 8 12.1582 8Z" fill="#EB5757"/>
</g>
</svg>
