<svg width="49" height="90" viewBox="0 0 49 90" fill="none" xmlns="http://www.w3.org/2000/svg">
<path d="M45.2307 88.5936H29.3096C28.7541 88.5936 28.3044 88.0268 28.3044 87.3268V18.3716C28.3044 17.6715 28.7541 17.1048 29.3096 17.1048H45.2307C45.7862 17.1048 46.2359 17.6715 46.2359 18.3716V87.3305C46.2359 88.0268 45.7862 88.5936 45.2307 88.5936Z" fill="#B94630"/>
<path d="M36.8887 41.3965C38.4763 41.3965 39.7634 40.1094 39.7634 38.5217C39.7634 36.934 38.4763 35.647 36.8887 35.647C35.301 35.647 34.0139 36.934 34.0139 38.5217C34.0139 40.1094 35.301 41.3965 36.8887 41.3965Z" fill="white"/>
<path d="M31.8025 24.6024C33.0432 24.6024 34.0489 23.6922 34.0489 22.5695C34.0489 21.4467 33.0432 20.5366 31.8025 20.5366C30.5619 20.5366 29.5562 21.4467 29.5562 22.5695C29.5562 23.6922 30.5619 24.6024 31.8025 24.6024Z" fill="white"/>
<path d="M34.0516 22.5704H29.5559V32.1157H34.0516V22.5704Z" fill="white"/>
<path d="M37.1575 24.6024C38.3981 24.6024 39.4039 23.6922 39.4039 22.5695C39.4039 21.4467 38.3981 20.5366 37.1575 20.5366C35.9169 20.5366 34.9111 21.4467 34.9111 22.5695C34.9111 23.6922 35.9169 24.6024 37.1575 24.6024Z" fill="white"/>
<path d="M39.4076 22.5704H34.9119V32.1157H39.4076V22.5704Z" fill="white"/>
<path d="M42.5137 24.6024C43.7543 24.6024 44.7601 23.6922 44.7601 22.5695C44.7601 21.4467 43.7543 20.5366 42.5137 20.5366C41.2731 20.5366 40.2673 21.4467 40.2673 22.5695C40.2673 23.6922 41.2731 24.6024 42.5137 24.6024Z" fill="white"/>
<path d="M44.7628 22.5704H40.2671V32.1157H44.7628V22.5704Z" fill="white"/>
<path d="M47.8141 16.911C48.0596 17.3227 47.7651 17.8453 47.2858 17.8487L27.1204 17.9892C26.6257 17.9927 26.3263 17.4439 26.597 17.0299L37.1858 0.830952C37.4367 0.447259 38.0027 0.458926 38.2375 0.852629L47.8141 16.911Z" fill="#B94630"/>
<rect x="1.10427" y="45.2836" width="35.9218" height="43.9711" rx="2.13713" fill="#B94630" stroke="white" stroke-width="1.42475"/>
<rect x="6.41626" y="51.7456" width="5.7495" height="5.7495" fill="white"/>
<rect x="15.6157" y="51.7456" width="5.7495" height="5.7495" fill="white"/>
<rect x="24.8147" y="51.7456" width="5.7495" height="5.7495" fill="white"/>
<rect x="6.41626" y="60.9448" width="5.7495" height="5.7495" fill="white"/>
<rect x="15.6157" y="60.9448" width="5.7495" height="5.7495" fill="white"/>
<rect x="24.8147" y="60.9448" width="5.7495" height="5.7495" fill="white"/>
<rect x="6.41626" y="70.1439" width="5.7495" height="5.7495" fill="white"/>
<rect x="15.6157" y="70.1439" width="5.7495" height="5.7495" fill="white"/>
<rect x="24.8147" y="70.1439" width="5.7495" height="5.7495" fill="white"/>
<rect x="15.6157" y="79.3431" width="5.7495" height="9.1992" fill="white"/>
</svg>
