<svg width="33" height="59" viewBox="0 0 33 59" fill="none" xmlns="http://www.w3.org/2000/svg">
<path d="M30.1317 57.4054H19.8154C19.4554 57.4054 19.1641 57.0382 19.1641 56.5845V11.9039C19.1641 11.4502 19.4554 11.083 19.8154 11.083H30.1317C30.4917 11.083 30.783 11.4502 30.783 11.9039V56.5869C30.783 57.0382 30.4917 57.4054 30.1317 57.4054Z" fill="#B94630"/>
<path d="M24.726 26.8236C25.7548 26.8236 26.5888 25.9897 26.5888 24.9609C26.5888 23.9321 25.7548 23.0981 24.726 23.0981C23.6973 23.0981 22.8633 23.9321 22.8633 24.9609C22.8633 25.9897 23.6973 26.8236 24.726 26.8236Z" fill="white"/>
<path d="M21.4312 15.9414C22.235 15.9414 22.8867 15.3516 22.8867 14.6241C22.8867 13.8966 22.235 13.3069 21.4312 13.3069C20.6273 13.3069 19.9756 13.8966 19.9756 14.6241C19.9756 15.3516 20.6273 15.9414 21.4312 15.9414Z" fill="white"/>
<path d="M22.8877 14.6245H19.9746V20.8095H22.8877V14.6245Z" fill="white"/>
<path d="M24.8999 15.9414C25.7038 15.9414 26.3555 15.3516 26.3555 14.6241C26.3555 13.8966 25.7038 13.3069 24.8999 13.3069C24.096 13.3069 23.4443 13.8966 23.4443 14.6241C23.4443 15.3516 24.096 15.9414 24.8999 15.9414Z" fill="white"/>
<path d="M26.3574 14.6245H23.4443V20.8095H26.3574V14.6245Z" fill="white"/>
<path d="M28.3716 15.9414C29.1755 15.9414 29.8272 15.3516 29.8272 14.6241C29.8272 13.8966 29.1755 13.3069 28.3716 13.3069C27.5677 13.3069 26.916 13.8966 26.916 14.6241C26.916 15.3516 27.5677 15.9414 28.3716 15.9414Z" fill="white"/>
<path d="M29.8281 14.6245H26.915V20.8095H29.8281V14.6245Z" fill="white"/>
<path d="M31.5844 10.5876C31.8412 11.0182 31.5332 11.5649 31.0319 11.5684L18.8563 11.6532C18.3389 11.6568 18.0258 11.0829 18.3089 10.6498L24.7023 0.869119C24.9646 0.467801 25.5567 0.480005 25.8022 0.891791L31.5844 10.5876Z" fill="#B94630"/>
<rect x="1.2549" y="29.0589" width="23.8431" height="29.0588" rx="2.23529" fill="#B94630" stroke="white" stroke-width="1.4902"/>
<rect x="4.98047" y="33.5295" width="3.72549" height="3.72549" fill="white"/>
<rect x="10.9414" y="33.5295" width="3.72549" height="3.72549" fill="white"/>
<rect x="16.9023" y="33.5295" width="3.72549" height="3.72549" fill="white"/>
<rect x="4.98047" y="39.4902" width="3.72549" height="3.72549" fill="white"/>
<rect x="10.9414" y="39.4902" width="3.72549" height="3.72549" fill="white"/>
<rect x="16.9023" y="39.4902" width="3.72549" height="3.72549" fill="white"/>
<rect x="4.98047" y="45.4509" width="3.72549" height="3.72549" fill="white"/>
<rect x="10.9414" y="45.4509" width="3.72549" height="3.72549" fill="white"/>
<rect x="16.9023" y="45.4509" width="3.72549" height="3.72549" fill="white"/>
<rect x="10.9414" y="51.4119" width="3.72549" height="5.96078" fill="white"/>
</svg>
