<svg width="516" height="239" viewBox="0 0 516 239" fill="none" xmlns="http://www.w3.org/2000/svg">
<g opacity="0.4">
<path d="M96.2848 196.486H60.9744C59.7424 196.486 58.7451 195.23 58.7451 193.677V40.7453C58.7451 39.1927 59.7424 37.9358 60.9744 37.9358H96.2848C97.5168 37.9358 98.5142 39.1927 98.5142 40.7453V193.685C98.5142 195.23 97.5168 196.486 96.2848 196.486Z" fill="#3D413B"/>
<path d="M77.7839 91.8108C81.3052 91.8108 84.1597 88.9563 84.1597 85.4351C84.1597 81.9138 81.3052 79.0593 77.7839 79.0593C74.2627 79.0593 71.4082 81.9138 71.4082 85.4351C71.4082 88.9563 74.2627 91.8108 77.7839 91.8108Z" fill="#B4B4B4"/>
<path d="M66.5036 54.5642C69.2551 54.5642 71.4857 52.5456 71.4857 50.0555C71.4857 47.5655 69.2551 45.5469 66.5036 45.5469C63.752 45.5469 61.5215 47.5655 61.5215 50.0555C61.5215 52.5456 63.752 54.5642 66.5036 54.5642Z" fill="#B4B4B4"/>
<path d="M71.4922 50.0576H61.5215V71.2274H71.4922V50.0576Z" fill="#B4B4B4"/>
<path d="M78.3795 54.5642C81.1311 54.5642 83.3616 52.5456 83.3616 50.0555C83.3616 47.5655 81.1311 45.5469 78.3795 45.5469C75.628 45.5469 73.3975 47.5655 73.3975 50.0555C73.3975 52.5456 75.628 54.5642 78.3795 54.5642Z" fill="#B4B4B4"/>
<path d="M83.3702 50.0576H73.3994V71.2274H83.3702V50.0576Z" fill="#B4B4B4"/>
<path d="M90.2604 54.5642C93.0119 54.5642 95.2425 52.5456 95.2425 50.0555C95.2425 47.5655 93.0119 45.5469 90.2604 45.5469C87.5089 45.5469 85.2783 47.5655 85.2783 50.0555C85.2783 52.5456 87.5089 54.5642 90.2604 54.5642Z" fill="#B4B4B4"/>
<path d="M95.2481 50.0576H85.2773V71.2274H95.2481V50.0576Z" fill="#B4B4B4"/>
<path d="M102.014 37.5058C102.559 38.4189 101.906 39.5781 100.843 39.5855L56.119 39.8973C55.0219 39.9049 54.3579 38.6878 54.9582 37.7695L78.4426 1.84292C78.9989 0.991948 80.2543 1.01782 80.775 1.89099L102.014 37.5058Z" fill="#3D413B"/>
<rect y="102.011" width="76.5089" height="94.3609" rx="3.15988" fill="#3D413B"/>
<rect x="10.2012" y="114.763" width="12.7515" height="12.7515" fill="#B4B4B4"/>
<rect x="30.6035" y="114.763" width="12.7515" height="12.7515" fill="#B4B4B4"/>
<rect x="51.0068" y="114.763" width="12.7515" height="12.7515" fill="#B4B4B4"/>
<rect x="10.2012" y="135.166" width="12.7515" height="12.7515" fill="#B4B4B4"/>
<rect x="30.6035" y="135.166" width="12.7515" height="12.7515" fill="#B4B4B4"/>
<rect x="51.0068" y="135.166" width="12.7515" height="12.7515" fill="#B4B4B4"/>
<rect x="10.2012" y="155.568" width="12.7515" height="12.7515" fill="#B4B4B4"/>
<rect x="30.6035" y="155.568" width="12.7515" height="12.7515" fill="#B4B4B4"/>
<rect x="51.0068" y="155.568" width="12.7515" height="12.7515" fill="#B4B4B4"/>
<rect x="30.6035" y="175.97" width="12.7515" height="20.4024" fill="#B4B4B4"/>
</g>
<g opacity="0.4">
<rect x="433.911" y="100.432" width="79.6687" height="97.5208" rx="4.73982" fill="#3D413B" stroke="white" stroke-width="3.15988"/>
<rect x="445.692" y="114.763" width="12.7515" height="12.7515" fill="#B4B4B4"/>
<rect x="466.095" y="114.763" width="12.7515" height="12.7515" fill="#B4B4B4"/>
<rect x="486.498" y="114.763" width="12.7515" height="12.7515" fill="#B4B4B4"/>
<rect x="445.692" y="135.166" width="12.7515" height="12.7515" fill="#B4B4B4"/>
<rect x="466.095" y="135.166" width="12.7515" height="12.7515" fill="#B4B4B4"/>
<rect x="486.498" y="135.166" width="12.7515" height="12.7515" fill="#B4B4B4"/>
<rect x="445.692" y="155.568" width="12.7515" height="12.7515" fill="#B4B4B4"/>
<rect x="466.095" y="155.568" width="12.7515" height="12.7515" fill="#B4B4B4"/>
<rect x="486.498" y="155.568" width="12.7515" height="12.7515" fill="#B4B4B4"/>
<rect x="466.095" y="175.97" width="12.7515" height="20.4024" fill="#B4B4B4"/>
</g>
<path d="M156.181 196.709V171.67H100.578V153.021C101.615 151.294 102.938 149.107 104.55 146.459C106.277 143.696 108.291 140.588 110.594 137.135L147.72 82.741H182.428V151.294H199.869V171.67H182.428V196.709H156.181ZM124.408 151.294H156.526V116.759C156.526 114.456 156.584 112.096 156.699 109.679C156.814 107.261 156.929 104.729 157.044 102.081H156.699C155.548 104.498 154.166 107.031 152.555 109.679C151.058 112.211 149.619 114.514 148.238 116.586L128.034 146.114C126.768 148.071 125.559 149.798 124.408 151.294ZM263.843 198.436C248.302 198.436 236.502 193.485 228.444 183.585C220.501 173.685 216.529 159.065 216.529 139.725C216.529 120.385 220.501 105.765 228.444 95.8645C236.502 85.9643 248.302 81.0142 263.843 81.0142C279.384 81.0142 291.126 85.9643 299.07 95.8645C307.128 105.765 311.157 120.385 311.157 139.725C311.157 159.065 307.128 173.685 299.07 183.585C291.126 193.485 279.384 198.436 263.843 198.436ZM263.843 175.297C270.175 175.297 274.722 172.591 277.485 167.181C280.363 161.655 281.802 152.503 281.802 139.725C281.802 126.947 280.363 117.852 277.485 112.442C274.722 106.916 270.175 104.153 263.843 104.153C257.512 104.153 252.907 106.916 250.029 112.442C247.266 117.852 245.885 126.947 245.885 139.725C245.885 152.503 247.266 161.655 250.029 167.181C252.907 172.591 257.512 175.297 263.843 175.297ZM385.85 196.709V171.67H330.248V153.021C331.284 151.294 332.607 149.107 334.219 146.459C335.946 143.696 337.96 140.588 340.263 137.135L377.389 82.741H412.097V151.294H429.538V171.67H412.097V196.709H385.85ZM354.077 151.294H386.195V116.759C386.195 114.456 386.253 112.096 386.368 109.679C386.483 107.261 386.598 104.729 386.713 102.081H386.368C385.217 104.498 383.835 107.031 382.224 109.679C380.727 112.211 379.288 114.514 377.907 116.586L357.703 146.114C356.437 148.071 355.228 149.798 354.077 151.294Z" fill="#B1B3B1"/>
</svg>
