<svg width="24" height="25" viewBox="0 0 24 25" fill="none" xmlns="http://www.w3.org/2000/svg">
<g id="ph:map-pin-fill">
<path id="Vector" d="M12 1.54587C9.81273 1.54835 7.71575 2.41834 6.16911 3.96498C4.62247 5.51162 3.75248 7.60859 3.75 9.79587C3.75 16.8552 11.25 22.1868 11.5697 22.4099C11.6958 22.4983 11.846 22.5457 12 22.5457C12.154 22.5457 12.3042 22.4983 12.4303 22.4099C12.75 22.1868 20.25 16.8552 20.25 9.79587C20.2475 7.60859 19.3775 5.51162 17.8309 3.96498C16.2843 2.41834 14.1873 1.54835 12 1.54587ZM12 6.79587C12.5933 6.79587 13.1734 6.97182 13.6667 7.30146C14.1601 7.6311 14.5446 8.09964 14.7716 8.64782C14.9987 9.196 15.0581 9.7992 14.9424 10.3811C14.8266 10.9631 14.5409 11.4976 14.1213 11.9172C13.7018 12.3367 13.1672 12.6225 12.5853 12.7382C12.0033 12.854 11.4001 12.7946 10.8519 12.5675C10.3038 12.3404 9.83524 11.9559 9.50559 11.4626C9.17595 10.9692 9 10.3892 9 9.79587C9 9.00022 9.31607 8.23716 9.87868 7.67455C10.4413 7.11194 11.2044 6.79587 12 6.79587Z" fill="black"/>
</g>
</svg>
