<svg width="39" height="39" viewBox="0 0 39 39" fill="none" xmlns="http://www.w3.org/2000/svg">
<g clip-path="url(#clip0_804_6765)">
<path d="M21.875 27.1071H14.75C14.75 19.9821 18.55 17.6071 21.1625 16.1821C22.1125 15.7071 22.825 15.2321 23.3 14.7571C24.4875 13.5696 24.0125 11.9071 23.775 11.4321C23.0625 9.76962 21.4 8.10712 18.3125 8.10712C13.325 8.10712 12.375 12.6196 12.375 13.5696L5.25 12.6196C5.725 8.58212 9.2875 0.982117 18.3125 0.982117C23.775 0.982117 28.525 4.06962 30.425 8.58212C32.0875 12.6196 31.375 16.8946 28.525 19.7446C27.3375 20.9321 25.9125 21.6446 24.725 22.3571C22.5875 23.5446 21.875 24.7321 21.875 27.1071ZM23.0625 34.2321C23.0768 34.8647 22.9646 35.4937 22.7324 36.0823C22.5003 36.6709 22.1529 37.2072 21.7106 37.6597C21.2684 38.1121 20.7402 38.4717 20.1571 38.7172C19.5739 38.9628 18.9476 39.0893 18.3149 39.0895C17.6822 39.0897 17.0558 38.9634 16.4726 38.7182C15.8893 38.4729 15.3609 38.1136 14.9184 37.6614C14.476 37.2091 14.1283 36.673 13.8959 36.0845C13.6634 35.496 13.5509 34.8671 13.5649 34.2345C13.5923 32.9934 14.1045 31.8124 14.9919 30.9442C15.8792 30.0761 17.0711 29.5898 18.3125 29.5895C19.5539 29.5892 20.7461 30.0749 21.6339 30.9426C22.5216 31.8103 23.0344 32.991 23.0625 34.2321Z" fill="#B94630"/>
</g>
<defs>
<clipPath id="clip0_804_6765">
<rect width="38" height="38" fill="white" transform="translate(0.5 0.982117)"/>
</clipPath>
</defs>
</svg>
