<svg width="25" height="26" viewBox="0 0 25 26" fill="none" xmlns="http://www.w3.org/2000/svg">
<path d="M12.5 0.708084C19.2013 0.708084 24.6668 6.17364 24.6668 12.8749C24.6668 19.6237 19.2013 25.0417 12.5 25.0417C5.75122 25.0417 0.333191 19.6237 0.333191 12.8749C0.333191 6.17364 5.75122 0.708084 12.5 0.708084ZM12.5 22.7604C17.918 22.7604 22.3855 18.3405 22.3855 12.8749C22.3855 7.45686 17.918 2.98936 12.5 2.98936C7.03444 2.98936 2.61447 7.45686 2.61447 12.8749C2.61447 18.3405 7.03444 22.7604 12.5 22.7604ZM12.5 16.677C13.308 16.677 14.0209 17.3424 14.0209 18.1979C14.0209 19.0534 13.308 19.7187 12.5 19.7187C11.597 19.7187 10.9791 19.0534 10.9791 18.1979C10.9791 17.3424 11.6445 16.677 12.5 16.677ZM14.0684 6.79149C15.9694 6.79149 17.4428 8.26481 17.3952 10.1184C17.3952 11.259 16.7774 12.3521 15.7793 12.9699L13.6406 14.3007V14.3957C13.6406 15.0136 13.1178 15.5364 12.5 15.5364C11.8822 15.5364 11.3594 15.0136 11.3594 14.3957V13.6353C11.3594 13.2551 11.5495 12.8749 11.9297 12.6373L14.6387 11.0214C14.9714 10.8312 15.1615 10.4986 15.1615 10.1184C15.1615 9.54803 14.6387 9.07277 14.0209 9.07277H11.597C11.0267 9.07277 10.5989 9.54803 10.5989 10.1184C10.5989 10.7362 10.0761 11.259 9.4583 11.259C8.84045 11.259 8.31766 10.7362 8.31766 10.1184C8.31766 8.26481 9.79098 6.79149 11.6445 6.79149H14.0684Z" fill="#898989"/>
</svg>