<svg width="32" height="32" viewBox="0 0 32 32" fill="none" xmlns="http://www.w3.org/2000/svg">
<g id="tabler:location-filled">
<path id="Vector" d="M27.3156 3.28034L27.4505 3.27271L27.616 3.28289L27.7305 3.30325L27.8871 3.3478L28.0232 3.40634L28.1505 3.47889L28.2651 3.56416L28.3694 3.65961L28.4356 3.7347L28.54 3.88234L28.6061 4.00452C28.666 4.1318 28.7041 4.26671 28.7207 4.40671L28.7271 4.54161C28.7271 4.63707 28.7169 4.73125 28.6965 4.82161L28.652 4.97816L20.3385 27.9853C20.1809 28.3283 19.9282 28.619 19.6103 28.8227C19.2924 29.0264 18.9228 29.1346 18.5452 29.1345C18.2052 29.1356 17.8707 29.0486 17.5743 28.882C17.2778 28.7154 17.0296 28.4748 16.8538 28.1838L16.7711 28.0222L12.5049 19.4923L4.01578 15.2465C3.70167 15.1029 3.43079 14.8793 3.23022 14.5981C3.02965 14.3169 2.90642 13.9879 2.87287 13.6442L2.86523 13.4545C2.86523 12.7418 3.24833 12.0902 3.9356 11.7109L4.11378 11.6218L27.0445 3.34143L27.1794 3.30325L27.3156 3.28034Z" fill="black"/>
</g>
</svg>
