<svg width="54" height="57" viewBox="0 0 54 57" fill="none" xmlns="http://www.w3.org/2000/svg">
<ellipse cx="26.1511" cy="49.1128" rx="17.2214" ry="7.01612" fill="#3D413B" fill-opacity="0.4"/>
<path d="M26.7889 2.2324C32.1175 2.2324 37.2279 4.34919 40.9958 8.1171C44.7637 11.885 46.8805 16.9954 46.8805 22.324C46.8805 30.6419 40.5405 39.3572 28.1283 48.6664C27.7419 48.9562 27.2719 49.1128 26.7889 49.1128C26.3059 49.1128 25.8359 48.9562 25.4494 48.6664C13.0373 39.3572 6.69727 30.6419 6.69727 22.324C6.69727 16.9954 8.81405 11.885 12.582 8.1171C16.3499 4.34919 21.4603 2.2324 26.7889 2.2324ZM26.7889 15.6268C25.0127 15.6268 23.3092 16.3324 22.0532 17.5884C20.7973 18.8443 20.0917 20.5478 20.0917 22.324C20.0917 24.1002 20.7973 25.8037 22.0532 27.0597C23.3092 28.3156 25.0127 29.0212 26.7889 29.0212C28.5651 29.0212 30.2686 28.3156 31.5245 27.0597C32.7805 25.8037 33.4861 24.1002 33.4861 22.324C33.4861 20.5478 32.7805 18.8443 31.5245 17.5884C30.2686 16.3324 28.5651 15.6268 26.7889 15.6268Z" fill="#3D413B"/>
<rect x="22" y="15" width="11" height="15" fill="#3D413B"/>
<path d="M36 22H34V16H35V14H19V16H20V22H18C17.7348 22 17.4804 22.1054 17.2929 22.2929C17.1054 22.4804 17 22.7348 17 23V32H37V23C37 22.7348 36.8946 22.4804 36.7071 22.2929C36.5196 22.1054 36.2652 22 36 22ZM29 30V26H25V30H22V16H32V30H29Z" fill="white"/>
<path d="M24 18H26V20H24V18ZM28 18H30V20H28V18ZM24 22H26V24H24V22ZM28 22H30V24H28V22Z" fill="white"/>
</svg>
