<svg width="34" height="34" viewBox="0 0 34 34" fill="none" xmlns="http://www.w3.org/2000/svg">
<g id="search">
<path id="Vector" d="M26.2354 28.2496L20.1306 22.2894C19.3596 22.9062 18.4731 23.3944 17.4709 23.7542C16.4687 24.1139 15.4023 24.2938 14.2716 24.2938C11.4706 24.2938 9.10029 23.3235 7.16067 21.3828C5.22105 19.4422 4.25072 17.0719 4.24969 14.2719C4.24969 11.4709 5.22002 9.1006 7.16067 7.16098C9.10132 5.22135 11.4716 4.25103 14.2716 4.25C17.0726 4.25 19.4434 5.22033 21.3841 7.16098C23.3247 9.10163 24.2945 11.4719 24.2935 14.2719C24.2935 15.4026 24.1136 16.469 23.7539 17.4712C23.3941 18.4734 22.9058 19.3599 22.2891 20.1309L28.3558 26.1292L26.2354 28.2496ZM14.2716 21.2101C16.1989 21.2101 17.8373 20.5358 19.187 19.1873C20.5366 17.8387 21.2109 16.2002 21.2098 14.2719C21.2098 12.3446 20.5355 10.7067 19.187 9.35809C17.8384 8.0095 16.1999 7.33469 14.2716 7.33366C12.3443 7.33366 10.7064 8.00847 9.35778 9.35809C8.00919 10.7077 7.33438 12.3456 7.33336 14.2719C7.33336 16.1992 8.00816 17.8376 9.35778 19.1873C10.7074 20.5369 12.3453 21.2112 14.2716 21.2101Z" fill="#898989"/>
</g>
</svg>
