<svg width="20" height="20" viewBox="0 0 20 20" fill="none" xmlns="http://www.w3.org/2000/svg">
<path d="M12.1133 18.0718C12.1449 18.1507 12.2 18.218 12.271 18.2647C12.342 18.3114 12.4256 18.3353 12.5106 18.3331C12.5956 18.3309 12.6779 18.3028 12.7464 18.2525C12.815 18.2022 12.8665 18.1322 12.8941 18.0518L18.3108 2.21842C18.3374 2.14458 18.3425 2.06468 18.3254 1.98805C18.3083 1.91142 18.2698 1.84125 18.2143 1.78574C18.1588 1.73022 18.0886 1.69167 18.012 1.67458C17.9353 1.65749 17.8554 1.66258 17.7816 1.68925L1.94825 7.10592C1.86783 7.1335 1.79777 7.18502 1.74748 7.25356C1.69718 7.32211 1.66906 7.4044 1.66688 7.48939C1.66471 7.57438 1.68858 7.658 1.7353 7.72903C1.78202 7.80006 1.84935 7.85509 1.92825 7.88675L8.53659 10.5368C8.74549 10.6204 8.9353 10.7455 9.09456 10.9044C9.25382 11.0634 9.37924 11.253 9.46325 11.4618L12.1133 18.0718Z" stroke="white" stroke-width="1.25" stroke-linecap="round" stroke-linejoin="round"/>
<path d="M18.2116 1.78918L9.09497 10.905" stroke="white" stroke-width="1.25" stroke-linecap="round" stroke-linejoin="round"/>
</svg>
