<svg width="17" height="18" viewBox="0 0 17 18" fill="none" xmlns="http://www.w3.org/2000/svg">
<path d="M8.71991 17.3941C8.25311 17.3955 7.80518 17.21 7.47606 16.879L0.589621 9.99169C0.226214 9.62931 0.039875 9.12588 0.0797747 8.61422L0.519297 2.84242C0.581972 1.97426 1.27369 1.28441 2.14201 1.22409L7.91382 0.784572C7.95865 0.774902 8.00436 0.774902 8.04919 0.774902C8.51495 0.776098 8.96138 0.961241 9.29128 1.29002L16.1786 8.17646C16.5085 8.50619 16.6938 8.95347 16.6938 9.41987C16.6938 9.88626 16.5085 10.3335 16.1786 10.6633L9.96287 16.879C9.63396 17.2098 9.18639 17.3953 8.71991 17.3941ZM8.04832 2.53299L2.27211 2.97251L1.83259 8.74872L8.71991 15.636L14.9348 9.42119L8.04832 2.53299ZM4.99012 7.44862C4.15137 7.44879 3.4293 6.85645 3.2655 6.03385C3.10171 5.21125 3.54181 4.3875 4.31666 4.06638C5.0915 3.74526 5.98528 4.01622 6.45138 4.71353C6.91748 5.41085 6.82608 6.34031 6.23309 6.93349C5.90418 7.26429 5.45661 7.44977 4.99012 7.44862Z" fill="black"/>
</svg>
