<svg width="4" height="12" viewBox="0 0 4 12" fill="none" xmlns="http://www.w3.org/2000/svg">
<path d="M2 8.78932C1.21864 8.78932 0.541468 9.4665 0.541468 10.2479C0.541468 11.0553 1.21864 11.7064 2 11.7064C2.8074 11.7064 3.45853 11.0553 3.45853 10.2479C3.45853 9.4665 2.8074 8.78932 2 8.78932ZM2 4.62209C1.21864 4.62209 0.541468 5.29926 0.541468 6.08062C0.541468 6.88802 1.21864 7.53915 2 7.53915C2.8074 7.53915 3.45853 6.88802 3.45853 6.08062C3.45853 5.29926 2.8074 4.62209 2 4.62209ZM2 3.37192C2.8074 3.37192 3.45853 2.72079 3.45853 1.91338C3.45853 1.13203 2.8074 0.454851 2 0.454851C1.21864 0.454851 0.541468 1.13203 0.541468 1.91338C0.541468 2.72079 1.21864 3.37192 2 3.37192Z" fill="#5D5D5D"/>
</svg>
