<svg width="13" height="13" viewBox="0 0 13 13" fill="none" xmlns="http://www.w3.org/2000/svg">
<path d="M2.42774 9.61157C2.32206 9.71725 2.2627 9.86057 2.2627 10.01C2.2627 10.1595 2.32206 10.3028 2.42774 10.4084C2.53341 10.5141 2.67673 10.5735 2.82617 10.5735C2.97562 10.5735 3.11894 10.5141 3.22461 10.4084L6.2007 7.43142L9.17774 10.4075C9.28341 10.5132 9.42673 10.5725 9.57617 10.5725C9.72562 10.5725 9.86894 10.5132 9.97461 10.4075C10.0803 10.3018 10.1396 10.1585 10.1396 10.0091C10.1396 9.85963 10.0803 9.71631 9.97461 9.61064L6.99758 6.63454L9.97367 3.65751C10.0793 3.55184 10.1387 3.40852 10.1387 3.25907C10.1387 3.10963 10.0793 2.96631 9.97367 2.86064C9.868 2.75496 9.72468 2.6956 9.57524 2.6956C9.42579 2.6956 9.28247 2.75496 9.1768 2.86064L6.2007 5.83767L3.22367 2.86017C3.118 2.7545 2.97468 2.69513 2.82524 2.69513C2.67579 2.69513 2.53247 2.7545 2.4268 2.86017C2.32113 2.96584 2.26176 3.10916 2.26176 3.25861C2.26176 3.40805 2.32113 3.55137 2.4268 3.65704L5.40383 6.63454L2.42774 9.61157Z"/>
</svg>
